<?xml version="1.0" standalone="no"?>
<!DOCTYPE svg PUBLIC "-//W3C//DTD SVG 20010904//EN"
 "http://www.w3.org/TR/2001/REC-SVG-20010904/DTD/svg10.dtd">
<svg version="1.0" xmlns="http://www.w3.org/2000/svg"
 width="40.000000pt" height="40.000000pt" viewBox="0 0 40.000000 40.000000"
 preserveAspectRatio="xMidYMid meet">

<g transform="translate(0.000000,40.000000) scale(0.100000,-0.100000)"
fill="#790514" stroke="none">
<path d="M114 376 c-87 -40 -130 -132 -105 -223 25 -96 92 -148 191 -148 70 0
123 26 161 78 95 131 -3 317 -167 317 -16 0 -52 -11 -80 -24z m131 -116 c21
21 42 37 48 33 5 -3 -10 -25 -34 -49 l-43 -44 38 -39 c54 -55 37 -76 -18 -22
l-42 41 -39 -40 c-21 -21 -42 -37 -48 -33 -5 3 10 25 34 49 l43 44 -38 39
c-54 55 -37 76 18 22 l42 -41 39 40z"/>
</g>
</svg>
