<?xml version="1.0"?>
<svg xmlns="http://www.w3.org/2000/svg" xmlns:xlink="http://www.w3.org/1999/xlink" version="1.1" id="Layer_1" x="0px" y="0px" viewBox="0 0 496.158 496.158" style="enable-background:new 0 0 496.158 496.158;" xml:space="preserve" width="512px" height="512px" class=""><g transform="matrix(0.868746, 0, 0, 0.868746, 32.5614, 32.5614)"><path style="fill:#F1F1F1" d="M496.158,248.085c0-137.021-111.07-248.082-248.076-248.082C111.07,0.003,0,111.063,0,248.085  c0,137.002,111.07,248.07,248.083,248.07C385.088,496.155,496.158,385.087,496.158,248.085z" data-original="#E5AA17" class="" data-old_color="#E5AA17"/><path style="fill:#880D1E" d="M295.588,361.591c0-17.435-23.121-31.566-51.641-31.566c-28.521,0-51.643,14.132-51.643,31.566  c0,5.97,2.714,11.552,7.425,16.313c-0.927,2.216-1.421,4.538-1.421,6.93c0,6.087,3.199,11.713,8.61,16.298  c-0.093,0.656-0.15,1.316-0.15,1.986c0,12.551,16.646,22.725,37.179,22.725c20.532,0,37.177-10.174,37.177-22.725  c0-0.67-0.057-1.33-0.15-1.986c5.412-4.584,8.61-10.211,8.61-16.298c0-2.392-0.494-4.714-1.421-6.93  C292.874,373.142,295.588,367.56,295.588,361.591z" data-original="#FFFFFF" class="active-path" data-old_color="#FFFFFF"/><path style="fill:#F1F1F1" d="M295.932,359.092c0,0-11.324,9.955-52.258,9.955s-51.713-9.955-51.713-9.955v-27.016h103.972v27.016  H295.932z" data-original="#E5AA17" class="" data-old_color="#E5AA17"/><g>
	<path style="fill:#880D1E" d="M345.527,251.167c0-56.107-45.479-101.583-101.58-101.583c-56.102,0-101.582,45.476-101.582,101.583   c0,37.099,19.895,69.548,49.595,87.275v12.327c0,0,10.779,9.955,51.713,9.955s52.258-9.955,52.258-9.955v-12.325   C325.632,320.717,345.527,288.266,345.527,251.167z" data-original="#FFFFFF" class="active-path" data-old_color="#FFFFFF"/>
	<path style="fill:#880D1E" d="M248.079,132.313c-4.418,0-8-3.582-8-8V70.315c0-4.418,3.582-8,8-8s8,3.582,8,8v53.998   C256.079,128.731,252.497,132.313,248.079,132.313z" data-original="#FFFFFF" class="active-path" data-old_color="#FFFFFF"/>
	<path style="fill:#880D1E" d="M429.57,259.807h-53.998c-4.418,0-8-3.582-8-8c0-4.418,3.582-8,8-8h53.998c4.418,0,8,3.582,8,8   C437.57,256.225,433.989,259.807,429.57,259.807z" data-original="#FFFFFF" class="active-path" data-old_color="#FFFFFF"/>
	<path style="fill:#880D1E" d="M120.586,259.807H66.588c-4.418,0-8-3.582-8-8c0-4.418,3.582-8,8-8h53.998c4.418,0,8,3.582,8,8   C128.586,256.225,125.004,259.807,120.586,259.807z" data-original="#FFFFFF" class="active-path" data-old_color="#FFFFFF"/>
	<path style="fill:#880D1E" d="M338.23,169.655c-2.047,0-4.095-0.781-5.657-2.343c-3.125-3.124-3.125-8.189,0-11.313l38.182-38.182   c3.124-3.124,8.189-3.124,11.313,0c3.125,3.124,3.125,8.189,0,11.313l-38.182,38.182   C342.325,168.874,340.278,169.655,338.23,169.655z" data-original="#FFFFFF" class="active-path" data-old_color="#FFFFFF"/>
	<path style="fill:#880D1E" d="M157.928,169.655c-2.047,0-4.095-0.781-5.657-2.343l-38.183-38.182   c-3.125-3.124-3.125-8.189,0-11.313c3.124-3.124,8.189-3.124,11.313,0l38.183,38.182c3.125,3.124,3.125,8.189,0,11.313   C162.022,168.874,159.975,169.655,157.928,169.655z" data-original="#FFFFFF" class="active-path" data-old_color="#FFFFFF"/>
</g></g> </svg>
