<svg height="512pt" viewBox="0 -23 512 512" width="512pt" xmlns="http://www.w3.org/2000/svg"><path d="m502 128.703125h-197.023438l-1.078124-2.566406c1.96875-5.226563 3.050781-10.878907 3.050781-16.78125 0-14-6.058594-26.609375-15.691407-35.34375v-41.308594c0-8.726563-3.394531-16.9375-9.574218-23.128906-6.171875-6.175781-14.386719-9.574219-23.128906-9.574219-18.023438 0-32.691407 14.671875-32.691407 32.703125v42.582031c-8.847656 8.664063-14.351562 20.734375-14.351562 34.070313 0 6.03125 1.136719 11.800781 3.1875 17.117187l-.941407 2.230469h-144.085937v-88.234375c0-5.523438-4.476563-10-10-10-32.902344 0-59.671875 26.550781-59.671875 59.179688v317.75c0 32.5625 26.769531 59.054687 59.671875 59.054687h442.328125c5.523438 0 10-4.476563 10-10v-317.75c0-5.523437-4.476562-10-10-10zm-258.808594-41.933594c9.324219-6.640625 22.136719-6.78125 31.601563-.339843 7.332031 4.992187 12.15625 13.40625 12.15625 22.925781 0 5.140625-1.410157 9.957031-3.859375 14.089843-.308594.519532-.632813 1.03125-.976563 1.53125-3.734375 5.453126-9.359375 9.511719-15.929687 11.214844-9.941406 2.570313-20.707032-.707031-27.566406-8.324218-4.414063-4.914063-7.105469-11.402344-7.105469-18.511719 0-9.023438 4.332031-17.050781 11.023437-22.117188.21875-.160156.4375-.3125.65625-.46875zm95.1875 238.027344-29.875-71.292969c8.214844-3.902344 15.417969-8.507812 21.636719-13.277344l31.488281 74.941407zm-145.769531-30.417969-23.066406-9.753906 18.417969-43.558594c6.261718 4.695313 13.484374 9.195313 21.699218 12.984375l-8.597656 20.335938zm-7.789063 18.421875-10.21875 24.160157-5.234374-30.695313zm43.777344-166.890625c6.359375 5.335938 14.175782 9.054688 22.371094 10.453125-.046875.113281-.082031.277344-.15625.371094l-33.339844 78.84375c-7.496094-3.539063-14.636718-8.109375-21.402344-13.6875l32.230469-76.214844c.097657.078125.203125.152344.296875.234375zm41.632813 16.253906.605469-1.4375 2.429687-5.746093c6.328125-1.9375 12.136719-5.160157 17.09375-9.433594l31.6875 75.417969c-.105469.085937-.207031.175781-.3125.265625-6.636719 5.574219-13.644531 10.152343-20.992187 13.746093zm-10.890625 25.765626 22.582031 53.894531c-7.527344 1.863281-15.339844 2.835937-23.425781 2.863281-7.609375-.027344-14.972656-.882812-22.089844-2.53125zm-13.476563-124.414063v-30.8125c0-7.003906 5.695313-12.703125 12.691407-12.703125 3.398437 0 6.589843 1.320312 8.976562 3.703125 2.402344 2.410156 3.726562 5.605469 3.726562 9v30.453125c-8.273437-2.144531-17.1875-2.023438-25.394531.359375zm-225.863281 26.132813c0-18.191407 12.621094-33.53125 29.671875-37.917969v297.203125c-10.972656 1.847656-21.347656 6.832031-29.671875 14.207031zm472 356.804687h-432.328125c-21.875 0-39.671875-17.519531-39.671875-39.054687 0-21.667969 17.796875-39.296876 39.671875-39.296876 5.523437 0 10-4.476562 10-10v-209.398437h135.628906l-24.484375 57.90625c-4.535156-5.53125-6.820312-9.4375-6.851562-9.492187-2.734375-4.796876-8.839844-6.46875-13.636719-3.734376-4.800781 2.730469-6.472656 8.839844-3.738281 13.636719.515625.90625 5.609375 9.632813 15.578125 20.039063l-21.046875 49.777344-2.613282-1.105469c-5.085937-2.148438-10.953124.230469-13.105468 5.316406-2.148438 5.085937.230468 10.953125 5.316406 13.105469l6.777344 2.867187 13.089844 77.121094c.746093 4.382813 4.289062 7.746094 8.703124 8.261719.390626.042968.777344.066406 1.160157.066406 3.636719 0 6.980469-2 8.738281-5.191406.128906-.230469.25-.464844.363281-.710938.035157-.070312.078125-.132812.105469-.203125l23.585938-55.777343 6.621093 2.800781c1.273438.539062 2.589844.792969 3.890625.792969 3.898438 0 7.601563-2.292969 9.214844-6.109376 2.152344-5.085937-.230469-10.953124-5.316406-13.105468l-6.621094-2.800782 17.480469-41.332031c8.898437 2.339844 18.660156 3.761719 29.304687 3.851563.097656.003906.199219.003906.300782.003906h.757812c.101562 0 .199219 0 .300781-.003906 11.152344-.09375 21.328125-1.65625 30.566407-4.199219l34.035156 81.230469c2.101562 5.003906 8.046875 7.445312 13.050781 5.375l11.796875-4.890625 6.585938 17.464843h-79.445313c-5.523437 0-10 4.480469-10 10 0 5.523438 4.476563 10 10 10h93.828125c.023438 0 .050781.003907.074219.003907.023437 0 .046875-.003907.066406-.003907h27.664063c5.523437 0 10-4.476562 10-10 0-5.519531-4.476563-10-10-10h-20.8125l-9.472657-25.117187 11.460938-4.746094c2.457031-1.019531 4.410156-2.976562 5.421875-5.4375 1.011718-2.460937 1-5.222656-.027344-7.675781l-38.105469-90.722656c9.285157-9.917969 14.042969-18.074219 14.539063-18.945313 2.730468-4.789062 1.0625-10.871093-3.71875-13.613281-4.777344-2.742188-10.882813-1.085938-13.640625 3.6875-.039063.0625-1.988281 3.394531-5.84375 8.246094l-23.789063-56.636719h178.589844zm0 0"/><path d="m435.769531 373.496094c1.601563 3.839844 5.546875 6.375 9.71875 6.15625 4.121094-.21875 7.753907-3.003906 9.023438-6.929688 1.28125-3.953125-.109375-8.464844-3.425781-10.988281-3.378907-2.570313-8.097657-2.71875-11.636719-.378906-3.949219 2.613281-5.460938 7.785156-3.679688 12.140625zm0 0"/></svg>