<svg xmlns="http://www.w3.org/2000/svg" width="213.333" height="213.333" viewBox="0 0 160 160" preserveAspectRatio="xMidYMid meet" fill="#790514" xmlns:v="https://vecta.io/nano"><path d="M6 27.7c-3.3 3.8-3.5 4.5-1.8 7.6 2.8 5.4-.3 5.2 76.1 5.3l70.8.1 3-3.5c3.6-4.1 3.3-7.5-.9-10.7-2.6-2-4.3-2-73.5-2.1l-70.8-.1L6 27.7zm0 44.7c-2.9 3.5-3 7.9-.2 10.9 1.2 1.3 2 2.6 1.6 2.9-1.1 1.2 3.7 2.9 5.9 2.1 2-.6 1.8-.8-1.3-1.4-1.9-.3 28.4-.7 67.3-.8l72.8-1.1c1-.6 2.6-2.4 3.5-4.1 1.9-3.7.5-8.2-2.9-9.5-1.2-.5-34.2-1.1-73.2-1.4l-71.1-.5L6 72.4zM49.5 88c-.8 1.3 6.5 1.3 8.5 0 1.1-.7.2-1-3.2-1-2.6 0-5 .4-5.3 1zM5 119.2c-2.2 4-1.9 8.2.7 9.2.8.4 1.3 1.2 1 1.9-.7 1.9 142.7 1.8 145.9 0 2.6-1.5 4.5-6.3 3.7-9.3-.3-1.1-2-2.8-3.7-3.8-2.8-1.5-9.2-1.7-74.3-1.7l-71.2-.1-2.1 3.8z"/></svg>